<svg width="64" height="64" viewBox="0 0 64 64" fill="none" xmlns="http://www.w3.org/2000/svg">
<path d="M20.3333 16C20.3333 12.3181 23.3181 9.33334 27 9.33334H37C40.6819 9.33334 43.6667 12.3181 43.6667 16V21.3333C43.6667 25.0152 40.6819 28 37 28H27C23.3181 28 20.3333 25.0152 20.3333 21.3333V16Z" fill="#A16207"/>
<path d="M20.3333 36C20.3333 32.3181 23.3181 29.3333 27 29.3333H37C40.6819 29.3333 43.6667 32.3181 43.6667 36V41.3333C43.6667 45.0152 40.6819 48 37 48H27C23.3181 48 20.3333 45.0152 20.3333 41.3333V36Z" fill="#FACC15"/>
<rect x="20" y="52" width="24" height="2.66667" rx="1.33333" fill="#44403C"/>
</svg>
